Patient4_TMGait_0pt2_01_right_05_EMG.mot
version=1
nRows=23
nColumns=33
inDegrees=no
endheader
time	1LAddLong	2LGlutMax	3LGlutMed	4LIliopsoas	5LSemiMemb	6LBicFemLong	7LRecFem	8LVastMed	9LVastLat	10LGasMed	11LTibAnt	12lTibPost	13LPeroneusLong	14LSol	15LExtDigLong	16LFlexDigLong	17RAddLong	18RGlutMax	19RGlutMed	20RIliopsoas	21RSemiMemb	22RBicFemLong	23RRecFem	24RVastMed	25RVastLat	26RGasMed	27RTibAnt	28RTibPost	29RPeroneusLong	30RSol	31RExtDigLong	32RFlexDigLong
9.33	0.015106	-0.037537	-0.037537	0.017395	0.050201	0.015106	0.10635	0.012512	0.037994	-0.012665	-0.01236	-0.001678	0.13077	0.067749	0.20065	0.026703	-0.015717	0.095673	0.065918	0.0354	0.027161	0.1001	0.041504	0.04837	0.007019	0.003967	0.000305	0.00885	0.14969	-0.25864	0.003662	-0.023651
9.331	-0.055237	-0.089874	0.048828	-0.009155	0.069427	-0.009155	0.071564	0.021667	0.077515	-0.052948	-0.073547	0.007782	0.32837	0.03479	0.048981	0.027008	-0.004883	0.098419	0.10544	0.00946	0.020447	0.085602	0.06073	0.054932	0.021973	0.002594	0.052185	0.000916	-0.00946	-0.20599	-0.000153	-0.020599
9.332	0.054474	-0.09613	0.033417	-0.015717	0.023956	0.000458	0.039215	0.022125	0.15259	-0.077362	-0.026703	0.007172	0.10132	0.11185	0.20035	0.025787	-0.003967	0.13046	0.50797	0.019531	0.02243	0.077362	0.053406	0.012512	0.007935	0.001373	0.051727	-0.001678	-0.1001	-0.085907	-0.002441	-0.013733
9.333	-0.01358	-0.15106	-0.06012	-0.007629	0.000458	-0.069885	-0.087585	0.01358	0.23407	0.002136	0.078583	0.00824	-0.42068	-0.003357	0.19836	0.012665	-0.000916	0.10727	0.66315	-0.05661	0.032043	0.079498	0.079346	0.029449	0.00885	0.004578	0.048523	0.000305	-0.13412	-0.041962	-0.007477	-0.012665
9.334	0.017548	-0.12344	-0.12375	-0.003204	-0.004425	-0.10635	-0.19959	0.00946	0.30991	0.038605	0.023956	0.00412	-0.29694	-0.097351	0.005798	-0.00824	-0.003357	0.10071	0.2066	-0.07309	0.010223	0.072327	0.070801	-0.0177	0.008545	0.007629	0.029449	-0.000916	-0.15656	0.019226	-0.004578	-0.013733
9.335	0.004883	-0.10849	-0.10193	-0.000153	0.030518	-0.048523	-0.072632	0.002594	0.029602	0.086517	-0.004883	0.010223	0.024261	-0.002136	-0.18723	-0.004883	-0.027771	0.1236	-0.039978	-0.11368	0.010529	0.050659	0.084839	0.013275	-0.005798	0.001678	0.009766	0.003357	-0.21774	0.024414	-0.003967	0.003052
9.336	0.002289	-0.08667	-0.078278	0.011902	0.033264	-0.000916	-0.020905	0.00412	-0.18723	0.11566	0.046539	-0.001373	-0.098724	-0.028076	-0.091248	-0.012054	-0.024872	0.12848	-0.10956	-0.16602	0.00351	0.069275	-0.007782	-0.002899	-0.00412	-0.00412	0.002594	-0.000153	0.002747	0.02121	-0.001831	-0.015564
9.337	0.005951	-0.065308	-0.055847	0.009613	0.011749	-0.013123	-0.098877	0.007629	-0.22842	0.14771	-0.02655	0.000305	0.13519	0.054169	0.11185	0.010223	-0.035553	0.12619	-0.036621	-0.2066	0.007019	0.056152	0.036316	-0.011597	0.004578	-0.007324	0.002899	-0.001221	0.61859	0.007324	0.007019	-0.013123
9.338	-0.003357	-0.067902	-0.042725	0.019989	0.00946	-0.033112	0.051575	0.006256	-0.12314	0.082092	-0.03479	0.002594	0.096741	-0.021667	0.042877	0.010071	-0.011902	0.14603	0.24963	-0.10178	-0.012817	0.056458	0.045319	-0.016937	-0.00061	-0.009155	-0.001373	0.003967	-0.27863	-0.050812	-0.002594	-0.008087
9.339	-0.005951	-0.028381	0.035248	0.028687	0.003967	-0.036926	0.11993	-0.034027	0.014954	-0.089264	-0.03006	0.002136	0.20401	-0.059814	0.18951	0.002899	0.033875	0.090942	0.38422	-0.044403	-0.021973	0.028381	0.049286	-0.040131	0.014648	-0.008087	0.027008	-0.001068	-0.44235	0.015106	-0.003204	-0.012054
9.34	-0.009766	0.061798	0.032654	0.014496	0.005341	-0.006256	0.12466	-0.044708	0.034027	-0.059509	-0.029297	-0.004425	0.22125	-0.026245	0.13962	0.009155	0.027771	0.066986	0.46188	0.002594	-0.039063	0.032501	0.045624	-0.067596	-0.00061	-0.019531	0.021057	0.005646	-0.093689	0.097961	-0.000458	-0.012665
9.341	-0.013733	0.10315	0.080261	0.019226	0.009308	0.009766	0.10254	-0.024872	0.011444	0.016022	-0.074005	-0.000305	-0.043793	0.04776	0.11078	0.003357	0.010223	0.045776	0.24185	0.094452	-0.043182	0.040588	-0.028076	-0.073242	-0.004425	-0.018005	-0.034027	0.001678	-0.060272	0.13153	-0.00412	-0.007935
9.342	0.006561	0.084991	0.11002	0.018616	0.007629	0.082397	-0.006866	-0.016327	-0.021667	0.0354	0.052185	0.005035	-0.16876	0.059052	0.071411	-0.005341	0.007324	0.03479	-0.28275	0.11383	-0.033417	0.041962	-0.024719	-0.03952	0.009918	-0.012207	-0.06958	0.000458	0.028076	0.060577	-0.002289	-0.01709
9.343	0.007324	0.079651	0.022583	0.031433	-0.020752	0.15396	-0.006409	-0.010681	-0.016174	0.01297	0.18768	0.010834	0.13123	0.057373	0.04303	0.009308	-0.027161	0.11795	-0.39932	0.10681	-0.027618	0.023499	0.002899	-0.022278	0.015259	-0.011292	-0.031128	0.006256	0.10956	0.026703	0.000458	-0.016785
9.344	0.004578	0.10635	0.039215	0.011597	-0.020294	0.079498	-0.02243	-0.004578	0.011597	0.01297	0.18005	0.016022	0.21729	-0.010376	-0.1416	-0.01236	-0.038452	0.13077	0.19989	0.041046	-0.010529	0.033112	0.031586	-0.014191	0.012054	-0.008545	-0.079498	-0.000763	0.14282	0.032654	-0.002289	-0.017395
9.345	0	0.14755	0.096436	-0.001373	-0.017548	-0.014496	0.00061	-0.009308	0.012817	0.004883	0.112	0.011749	0.11139	-0.10437	-0.23331	-0.008698	-0.039063	0.082092	0.12497	0.038147	-0.011292	0.036163	0.017395	-0.046692	0.003052	-0.012817	-0.023804	0.002747	0.054779	0.014343	-0.000458	-0.020447
9.346	0.001984	0.13199	0.12482	-0.004272	-0.039215	-0.070496	-0.013428	-0.009003	0.005341	0.007172	0.14862	0.010071	0.008545	-0.053406	-0.099335	-0.003662	-0.063477	0.096741	0.055847	0.002441	0.031433	0.063171	-0.012054	0.030823	0.00351	-0.007629	0.22247	0.005035	-0.037537	-0.002594	-0.002594	-0.019989
9.347	-0.002289	0.0914	0.075073	0.002289	-0.032349	-0.15884	-0.000458	-0.002747	0.018921	-0.042267	0.168	-0.001068	0.081787	0.083923	0.19836	0.003662	-0.06134	0.10773	0.2301	-0.022888	0.040894	0.04715	0.016174	0.06012	0.0177	0.002747	0.3067	0.003662	-0.08194	-0.01709	0.002441	-0.019989
9.348	0.010986	0.014954	0.027313	0.018616	0.00473	-0.1207	0.006561	-0.001984	0.013428	0.006409	-0.045319	-0.001526	-0.021362	0.20706	0.83283	0.003052	-0.050964	0.079193	0.13718	-0.093079	0.02655	0.077362	0.006866	0.081635	0.010529	-0.000763	0.045776	0.002594	0.040588	-0.059052	-0.001831	-0.000763
9.349	0.005493	-0.094299	-0.16586	0.015869	0.017242	-0.028992	0.053711	-0.000305	-0.017853	0.26032	-0.29129	-0.000763	-0.03006	0.24689	-0.17303	0.005646	-0.022736	0.093231	0.12177	0.015259	0.04837	0.096741	0.003967	0.098877	0.014648	-0.001221	-0.084229	0.005188	0.062103	-0.10361	0.001984	-0.012207
9.35	0.004272	-0.13748	-0.22659	0.01358	-0.00473	0.079193	0.029297	0.003815	-0.031128	0.23331	-0.095215	-0.008698	0.10727	0.13763	-0.44784	-0.009918	0.010986	0.13092	-0.021667	0.2243	0.05127	0.07782	-0.008392	0.078888	0.022736	-0.000916	-0.18799	0.002441	0.050354	-0.10147	0.010529	-0.013885
9.351	0.015106	-0.15518	-0.16724	0.023346	0.009155	-0.073395	-0.005646	-0.002136	-0.019531	0.24963	-0.089722	-0.011749	0.3569	0.083923	-0.31616	-0.018005	0.071259	0.14236	-0.20798	0.25635	0.046692	0.097961	0.034637	0.086365	0.017242	-0.007324	-0.10147	0.005646	0.068665	-0.059052	0.000153	-0.010834
9.352	0.010223	-0.15671	-0.12558	0.024261	-0.00824	0.007019	-0.015717	0.001831	-0.009155	0.12802	-0.077362	-0.005646	0.85098	-0.037842	-0.24155	-0.055389	0.10834	0.16342	0.20828	0.083923	0.037689	0.094147	-0.022583	0.022736	0.026703	-0.005798	0.16892	0.005035	0.010071	0.017395	-0.002899	-0.009918
